<svg id="Layer_2" data-name="Layer 2" xmlns="http://www.w3.org/2000/svg" viewBox="0 0 465.91 141.96"><defs><style>.cls-1{fill:#fff;}.cls-2{fill:#be232b;}.cls-3{font-size:65px;fill:#93969a;font-family:PetitaLight;letter-spacing:0.13em;}.cls-4{letter-spacing:0.16em;}.cls-5{letter-spacing:0.13em;}.cls-6{letter-spacing:0.16em;}.cls-7{letter-spacing:-0.02em;}</style></defs><title>axe</title><polygon points="0 90.55 20.77 47.66 37.11 47.66 53.45 81.7 76.94 47.66 93.62 47.66 81.7 67.4 107.92 104.51 89.19 104.51 72.51 81.02 65.02 90.21 42.89 90.21 41.53 85.11 18.04 84.43 15.66 90.55 0 90.55"/><polygon points="35.62 34.26 56.55 64.25 64.98 53.4 51.83 34.26 35.62 34.26"/><polygon class="cls-1" points="22.3 74.25 35.62 74.38 29.15 59.66 22.3 74.25"/><path d="M258.57,246.06s2.3-27.06,28.34-22.34c0,0,18.26,1.15,17.11,27.19H270.45s7.4,13.79,22.85,2.43l5.74,7.15s-6.89,9.32-23.87,6.51Z" transform="translate(-167.81 -175.43)"/><path class="cls-1" d="M270.57,240.77h22.28s-.51-7.34-11.14-8.49A12.94,12.94,0,0,0,270.57,240.77Z" transform="translate(-167.81 -175.43)"/><rect class="cls-2" x="149.11" width="4.77" height="141.96"/><text class="cls-3" transform="translate(163.4 92.1)">C<tspan class="cls-4" x="52.39" y="0">A</tspan><tspan class="cls-5" x="106.14" y="0">P</tspan><tspan class="cls-6" x="148" y="0">I</tspan><tspan class="cls-7" x="171.92" y="0">T</tspan><tspan class="cls-6" x="207.87" y="0">AL</tspan></text></svg>